<svg width="35" height="35" viewBox="0 0 35 35" fill="none" xmlns="http://www.w3.org/2000/svg">
<path d="M4.16399 8.50355C6.4637 8.50355 8.32798 6.59997 8.32798 4.25177C8.32798 1.90358 6.4637 0 4.16399 0C1.86428 0 0 1.90358 0 4.25177C0 6.59997 1.86428 8.50355 4.16399 8.50355Z" fill="white"/>
<path d="M12.1415 11.6457H19.0426V14.8738C19.0426 14.8738 20.9153 11.0494 26.0106 11.0494C30.5559 11.0494 34.3211 13.3358 34.3211 20.3046V35H27.1697V22.0853C27.1697 17.9743 25.0202 17.5222 23.3823 17.5222C19.9831 17.5222 19.4012 20.516 19.4012 22.6216V35H12.1415V11.6457Z" fill="white"/>
<path d="M0.534137 11.6457H7.79385V35H0.534137V11.6457Z" fill="white"/>
</svg>
