<svg width="28" height="35" viewBox="0 0 28 35" fill="none" xmlns="http://www.w3.org/2000/svg">
<path fill-rule="evenodd" clip-rule="evenodd" d="M0 14.1548C0 6.32694 6.15009 0 13.5892 0C21.0494 0 27.1995 6.32694 27.1995 14.1548C27.1995 18.0993 25.8507 21.7614 23.6307 24.8653C21.1817 28.2891 18.1631 31.2722 14.7654 33.6138C13.9877 34.1549 13.2859 34.1958 12.4325 33.6138C9.0154 31.2722 5.99682 28.2891 3.56873 24.8653C1.34715 21.7614 0 18.0993 0 14.1548ZM9.11059 14.5955C9.11059 17.2178 11.1224 19.2803 13.5892 19.2803C16.0577 19.2803 18.0889 17.2178 18.0889 14.5955C18.0889 11.9936 16.0577 9.83074 13.5892 9.83074C11.1224 9.83074 9.11059 11.9936 9.11059 14.5955Z" fill="white"/>
</svg>
