<svg viewBox="0 0 93 142" fill="none" xmlns="http://www.w3.org/2000/svg">
<g filter="url(#filter0_d_41_4481)">
<path fill-rule="evenodd" clip-rule="evenodd" d="M44.9351 16.3479L13.0991 82.7814L4.00066 77.6027V53.4121V36.0535L54.7846 97.0777L46.5003 101.793L30.562 92.721L71.3991 19.2042L89 29.2222V53.4128V55.3329L71.4865 87.5721L67.7495 89.6982L56.5483 96.0748L4 32.9297V29.2228L25.2498 17.1279L37.9894 9.87742L86.3177 79.1309L74.7866 85.694L89 59.5289V77.604L88.0649 78.1358L44.9627 16.3719L44.9344 16.3492L44.9351 16.3479ZM51.2809 7.75189L67.7508 17.1266L69.6591 18.213L28.8219 91.7305L25.2512 89.6976L14.849 83.7771L51.2815 7.75252L51.2809 7.75189Z" fill="#FEFEFE"/>
<path fill-rule="evenodd" clip-rule="evenodd" d="M34.2714 134H31.5503L31.1297 128.69H29.1945L28.7733 134H26.0522L28.0721 114.643H32.2514L34.2714 134ZM30.9891 126.838L30.2321 116.965H30.0921L29.3351 126.838H30.9898H30.9891ZM48.4638 134H45.6875V119.095L43.6399 134H40.8912L38.8436 119.095V134H36.0666V114.643H40.1618L42.1535 129.879L44.3693 114.643H48.4644V134H48.4638ZM58.4776 134H55.7571L55.3359 128.69H53.4007L52.9795 134H50.2584L52.2777 114.643H56.4569L58.4769 134H58.4776ZM55.1959 126.838L54.4383 116.965H54.2977L53.5407 126.838H55.1959ZM66.9485 131.013C66.9485 132.046 66.752 132.783 66.3591 133.226C65.8919 133.741 65.1808 134 64.2273 134H62.5721C61.4688 134 60.74 133.649 60.3845 132.949C60.1973 132.58 60.1039 131.935 60.1039 131.013V127.225H62.8803V131.705C62.8803 131.889 62.946 132.023 63.0768 132.106C63.2082 132.189 63.358 132.231 63.5262 132.231C63.7319 132.212 63.8719 132.185 63.9468 132.148C64.0966 132.056 64.1708 131.908 64.1708 131.705V128.055C64.1708 127.796 64.096 127.507 63.9468 127.183C63.797 126.862 63.6195 126.58 63.4138 126.34L61.1698 123.852C60.7959 123.446 60.5436 123.124 60.4128 122.883C60.2071 122.515 60.1046 122.053 60.1046 121.501V117.657C60.1046 116.44 60.263 115.657 60.5817 115.307C60.974 114.864 61.6383 114.643 62.5728 114.643H64.2563C65.4904 114.643 66.294 115.002 66.6679 115.722C66.8552 116.09 66.9492 116.735 66.9492 117.657V120.837H64.1722V117.131C64.1722 116.911 64.0789 116.717 63.8922 116.551C63.7799 116.459 63.6675 116.413 63.5551 116.413C63.4244 116.413 63.2798 116.482 63.1201 116.621C62.9618 116.759 62.8816 116.929 62.8816 117.131V120.588C62.8816 121.012 62.9144 121.325 62.9801 121.529C63.0459 121.731 63.2088 121.971 63.471 122.248L65.9109 124.847C66.2664 125.234 66.5095 125.539 66.6403 125.76C66.846 126.109 66.9492 126.525 66.9492 127.005V131.014L66.9485 131.013Z" fill="#FEFEFE"/>
<path fill-rule="evenodd" clip-rule="evenodd" d="M49.364 0.934809L47.7337 11.1582L43.3441 12.825L37.0615 0L49.364 0.934809Z" fill="#FEFEFE"/>
</g>
<defs>
<filter id="filter0_d_41_4481" x="0" y="0" width="93" height="142" filterUnits="userSpaceOnUse" color-interpolation-filters="sRGB">
<feFlood flood-opacity="0" result="BackgroundImageFix"/>
<feColorMatrix in="SourceAlpha" type="matrix" values="0 0 0 0 0 0 0 0 0 0 0 0 0 0 0 0 0 0 127 0" result="hardAlpha"/>
<feOffset dy="4"/>
<feGaussianBlur stdDeviation="2"/>
<feComposite in2="hardAlpha" operator="out"/>
<feColorMatrix type="matrix" values="0 0 0 0 0 0 0 0 0 0 0 0 0 0 0 0 0 0 0.25 0"/>
<feBlend mode="normal" in2="BackgroundImageFix" result="effect1_dropShadow_41_4481"/>
<feBlend mode="normal" in="SourceGraphic" in2="effect1_dropShadow_41_4481" result="shape"/>
</filter>
</defs>
</svg>
