<svg width="32" height="31" viewBox="0 0 32 31" fill="none" xmlns="http://www.w3.org/2000/svg">
<path fill-rule="evenodd" clip-rule="evenodd" d="M23.9019 0C26.0475 0 28.1114 0.90193 29.6298 2.5203C31.1498 4.13526 31.9994 6.31351 31.9994 8.59386V22.0377C31.9994 26.7856 28.3674 30.6316 23.9019 30.6316H8.09584C3.63033 30.6316 0 26.7856 0 22.0377V8.59386C0 3.84597 3.61433 0 8.09584 0H23.9019ZM26.4475 11.1295L26.5755 10.9933C26.9579 10.4998 26.9579 9.78508 26.5579 9.29157C26.3355 9.03801 26.0299 8.88315 25.7115 8.84911C25.3755 8.83039 25.0555 8.95122 24.8139 9.18946L17.5997 15.3158C16.6717 16.1343 15.3421 16.1343 14.3997 15.3158L7.19987 9.18946C6.70228 8.79806 6.01429 8.84911 5.5999 9.30859C5.16791 9.76806 5.11991 10.4998 5.4863 11.0103L5.6959 11.2316L12.9758 17.2728C13.8717 18.0216 14.9581 18.43 16.0957 18.43C17.2301 18.43 18.3356 18.0216 19.23 17.2728L26.4475 11.1295Z" fill="white"/>
</svg>
