<svg width="32" height="35" viewBox="0 0 32 35" fill="none" xmlns="http://www.w3.org/2000/svg">
<path d="M19.8689 5.93906C19.1073 5.78941 18.4078 6.30639 18.2628 7.09716C18.1178 7.88794 18.6054 8.66 19.3463 8.81475C21.5771 9.27731 23.2995 11.1139 23.7361 13.4948V13.4965C23.8604 14.1818 24.4277 14.6801 25.081 14.6801C25.1686 14.6801 25.2563 14.6716 25.3455 14.6546C26.0864 14.4964 26.574 13.726 26.429 12.9336C25.7773 9.37765 23.2039 6.6312 19.8689 5.93906Z" fill="white"/>
<path d="M19.7694 0.0134945C19.4124 -0.0409243 19.0539 0.0713145 18.7687 0.312798C18.4755 0.557682 18.2923 0.911404 18.2524 1.30764C18.168 2.10862 18.7113 2.83307 19.4634 2.9232C24.65 3.53881 28.6813 7.83619 29.2645 13.3699C29.3426 14.1114 29.9273 14.6708 30.6253 14.6708C30.6778 14.6708 30.7288 14.6674 30.7814 14.6606C31.1463 14.6181 31.4714 14.426 31.7008 14.1199C31.9287 13.8138 32.0322 13.4328 31.9908 13.0434C31.2642 6.13901 26.2402 0.780459 19.7694 0.0134945Z" fill="white"/>
<path fill-rule="evenodd" clip-rule="evenodd" d="M14.4505 18.6723C20.8329 25.4589 22.2808 17.6076 26.3445 21.9268C30.2622 26.0926 32.514 26.9272 27.5502 32.2053C26.9285 32.7367 22.9781 39.1306 9.09519 24.3686C-4.78947 9.60473 1.21851 5.39875 1.71832 4.73763C6.69405 -0.555007 7.46523 1.85389 11.383 6.01969C15.4467 10.3407 8.06809 11.8858 14.4505 18.6723Z" fill="white"/>
</svg>
