<svg width="923" height="978" viewBox="0 0 923 978" fill="none" xmlns="http://www.w3.org/2000/svg">
<g opacity="0.4">
<path fill-rule="evenodd" clip-rule="evenodd" d="M561.627 184.859L66.687 700.332L0 624.831L74.841 401.768L128.547 241.706L401.406 959.301L311.508 977.514L194.688 845.247L793.368 291.908L922.377 437.966L847.539 661.023L841.599 678.729L582.651 922.584L542.103 930.792L420.552 955.422L138.216 212.894L149.682 178.715L380.274 131.999L518.514 104L743.586 889.983L618.459 915.33L828.615 717.42L772.695 884.088L762.546 886.137L561.807 185.15L561.624 184.859H561.627ZM645.906 124.946L766.623 261.623L780.609 277.457L181.929 830.802L155.757 801.165L79.515 714.843L645.909 124.946H645.906Z" fill="#192A47"/>
<path fill-rule="evenodd" clip-rule="evenodd" d="M659.945 28.143L613.493 117.438L568.436 119.418L551 -18L659.945 28.143Z" fill="#192A47"/>
</g>
</svg>
